<svg width="15" height="14" viewBox="0 0 15 14" fill="none" xmlns="http://www.w3.org/2000/svg">
<path fill-rule="evenodd" clip-rule="evenodd" d="M1.48954 6.51786C1.29836 6.51786 1.14338 6.67284 1.14338 6.86401C1.14338 7.05519 1.29836 7.21017 1.48954 7.21017L7.01781 7.21017L7.01781 12.7384C7.01781 12.9296 7.17279 13.0846 7.36396 13.0846C7.55514 13.0846 7.71011 12.9296 7.71011 12.7384L7.71012 7.21017H13.2384C13.4296 7.21017 13.5845 7.05519 13.5845 6.86401C13.5845 6.67284 13.4296 6.51786 13.2384 6.51786H7.71012L7.71011 0.989588C7.71011 0.798413 7.55514 0.643434 7.36396 0.643434C7.17279 0.643434 7.01781 0.798413 7.01781 0.989588L7.01781 6.51786L1.48954 6.51786Z" fill="#DBDBDB"/>
<path d="M1.14338 6.86401L1.64338 6.86401V6.86401L1.14338 6.86401ZM1.48954 6.51786L1.48954 6.01786L1.48954 6.51786ZM1.48954 7.21017L1.48954 7.71017L1.48954 7.71017L1.48954 7.21017ZM7.01781 7.21017H7.51781V6.71017H7.01781V7.21017ZM7.01781 12.7384L7.51781 12.7384L7.51781 12.7384L7.01781 12.7384ZM7.36396 13.0846L7.36396 12.5846L7.36396 13.0846ZM7.71011 12.7384L8.21011 12.7384L8.21012 12.7384L7.71011 12.7384ZM7.71012 7.21017V6.71017H7.21012V7.21017H7.71012ZM7.71012 6.51786H7.21012V7.01786H7.71012V6.51786ZM7.71011 0.989588L8.21012 0.989588L8.21011 0.989588L7.71011 0.989588ZM7.36396 0.643434L7.36396 1.14343L7.36396 0.643434ZM7.01781 0.989588L7.51781 0.989588L7.51781 0.989588L7.01781 0.989588ZM7.01781 6.51786V7.01786L7.51781 7.01786L7.51781 6.51786H7.01781ZM1.64338 6.86401C1.64338 6.94898 1.5745 7.01786 1.48954 7.01786L1.48954 6.01786C1.02222 6.01786 0.643382 6.3967 0.643382 6.86401L1.64338 6.86401ZM1.48954 6.71017C1.5745 6.71017 1.64338 6.77905 1.64338 6.86401L0.643382 6.86401C0.643382 7.33133 1.02222 7.71017 1.48954 7.71017L1.48954 6.71017ZM7.01781 6.71017L1.48954 6.71017L1.48954 7.71017L7.01781 7.71017L7.01781 6.71017ZM7.51781 12.7384L7.51781 7.21017H6.51781L6.51781 12.7384L7.51781 12.7384ZM7.36396 12.5846C7.44893 12.5846 7.51781 12.6535 7.51781 12.7384L6.51781 12.7384C6.51781 13.2058 6.89664 13.5846 7.36396 13.5846L7.36396 12.5846ZM7.21012 12.7384C7.21012 12.6535 7.27899 12.5846 7.36396 12.5846L7.36396 13.5846C7.83128 13.5846 8.21011 13.2058 8.21011 12.7384L7.21012 12.7384ZM7.21012 7.21017L7.21012 12.7384L8.21012 12.7384L8.21012 7.21017H7.21012ZM13.2384 6.71017H7.71012V7.71017H13.2384V6.71017ZM13.0845 6.86401C13.0845 6.77905 13.1534 6.71017 13.2384 6.71017V7.71017C13.7057 7.71017 14.0845 7.33133 14.0845 6.86401H13.0845ZM13.2384 7.01786C13.1534 7.01786 13.0845 6.94898 13.0845 6.86401H14.0845C14.0845 6.3967 13.7057 6.01786 13.2384 6.01786V7.01786ZM7.71012 7.01786H13.2384V6.01786H7.71012V7.01786ZM7.21012 0.989588L7.21012 6.51786H8.21012L8.21012 0.989588L7.21012 0.989588ZM7.36396 1.14343C7.27899 1.14343 7.21012 1.07455 7.21012 0.989588L8.21011 0.989588C8.21011 0.52227 7.83128 0.143434 7.36396 0.143434L7.36396 1.14343ZM7.51781 0.989588C7.51781 1.07455 7.44893 1.14343 7.36396 1.14343L7.36396 0.143434C6.89664 0.143434 6.51781 0.52227 6.51781 0.989588L7.51781 0.989588ZM7.51781 6.51786L7.51781 0.989588L6.51781 0.989588L6.51781 6.51786H7.51781ZM1.48954 7.01786L7.01781 7.01786V6.01786L1.48954 6.01786L1.48954 7.01786Z" fill="#DBDBDB"/>
</svg>
