<svg width="16" height="17" viewBox="0 0 16 17" fill="none" xmlns="http://www.w3.org/2000/svg">
<path fill-rule="evenodd" clip-rule="evenodd" d="M7.02105 5.44118C6.87475 6.17955 6.23757 6.73529 5.47368 6.73529C4.7098 6.73529 4.07262 6.17955 3.92632 5.44118H2.31579C2.14138 5.44118 2 5.29633 2 5.11765C2 4.93897 2.14138 4.79412 2.31579 4.79412H3.92632C4.07262 4.05575 4.7098 3.5 5.47368 3.5C6.23757 3.5 6.87475 4.05575 7.02105 4.79412H13.6842C13.8586 4.79412 14 4.93897 14 5.11765C14 5.29633 13.8586 5.44118 13.6842 5.44118H7.02105ZM6.42105 5.11765C6.42105 5.65369 5.9969 6.08824 5.47368 6.08824C4.95047 6.08824 4.52632 5.65369 4.52632 5.11765C4.52632 4.58161 4.95047 4.14706 5.47368 4.14706C5.9969 4.14706 6.42105 4.58161 6.42105 5.11765Z" fill="white"/>
<path fill-rule="evenodd" clip-rule="evenodd" d="M12.0737 9.32353C11.9274 10.0619 11.2902 10.6176 10.5263 10.6176C9.76243 10.6176 9.12525 10.0619 8.97895 9.32353H2.31579C2.14138 9.32353 2 9.17868 2 9C2 8.82132 2.14138 8.67647 2.31579 8.67647H8.97895C9.12525 7.9381 9.76243 7.38235 10.5263 7.38235C11.2902 7.38235 11.9274 7.9381 12.0737 8.67647H13.6842C13.8586 8.67647 14 8.82132 14 9C14 9.17868 13.8586 9.32353 13.6842 9.32353H12.0737ZM11.4737 9C11.4737 9.53604 11.0495 9.97059 10.5263 9.97059C10.0031 9.97059 9.57895 9.53604 9.57895 9C9.57895 8.46396 10.0031 8.02941 10.5263 8.02941C11.0495 8.02941 11.4737 8.46396 11.4737 9Z" fill="white"/>
<path fill-rule="evenodd" clip-rule="evenodd" d="M5.47368 14.5C6.23757 14.5 6.87475 13.9443 7.02105 13.2059H13.6842C13.8586 13.2059 14 13.061 14 12.8824C14 12.7037 13.8586 12.5588 13.6842 12.5588H7.02105C6.87475 11.8205 6.23757 11.2647 5.47368 11.2647C4.7098 11.2647 4.07262 11.8205 3.92632 12.5588H2.31579C2.14138 12.5588 2 12.7037 2 12.8824C2 13.061 2.14138 13.2059 2.31579 13.2059H3.92632C4.07262 13.9443 4.7098 14.5 5.47368 14.5ZM5.47368 13.8529C5.9969 13.8529 6.42105 13.4184 6.42105 12.8824C6.42105 12.3463 5.9969 11.9118 5.47368 11.9118C4.95047 11.9118 4.52632 12.3463 4.52632 12.8824C4.52632 13.4184 4.95047 13.8529 5.47368 13.8529Z" fill="white"/>
</svg>
